<svg width="51" height="51" viewBox="0 0 51 51" fill="none" xmlns="http://www.w3.org/2000/svg">
<rect width="51" height="51" fill="white"/>
<path fill-rule="evenodd" clip-rule="evenodd" d="M30.688 32.864C31.392 33.024 32.16 33.104 32.992 33.104C34.528 33.104 35.856 32.904 36.976 32.504C38.112 32.104 38.984 31.528 39.592 30.776C40.2 30.024 40.504 29.128 40.504 28.088C40.504 27.256 40.312 26.552 39.928 25.976C39.544 25.4 39.064 24.936 38.488 24.584C37.912 24.216 37.216 23.864 36.4 23.528L35.896 23.312C35 22.928 34.352 22.616 33.952 22.376C33.568 22.12 33.376 21.792 33.376 21.392C33.376 21.072 33.512 20.816 33.784 20.624C34.072 20.416 34.44 20.312 34.888 20.312C36.056 20.312 36.64 20.872 36.64 21.992V22.376L36.928 22.568L39.712 22.376C39.792 21.48 39.904 20.616 40.048 19.784C40.208 18.952 40.312 18.424 40.36 18.2L40.072 17.672C39.976 17.64 39.72 17.568 39.304 17.456C38.904 17.344 38.36 17.24 37.672 17.144C37 17.048 36.272 17 35.488 17C34.016 17 32.72 17.216 31.6 17.648C30.496 18.064 29.632 18.664 29.008 19.448C28.4 20.216 28.096 21.112 28.096 22.136C28.096 23.256 28.424 24.16 29.08 24.848C29.752 25.52 30.648 26.104 31.768 26.6L32.728 27.032C33.576 27.384 34.2 27.696 34.6 27.968C35 28.224 35.2 28.544 35.2 28.928C35.2 29.232 35.056 29.472 34.768 29.648C34.496 29.824 34.112 29.912 33.616 29.912C32.912 29.912 32.384 29.72 32.032 29.336C31.68 28.936 31.504 28.312 31.504 27.464L28.48 27.68C28.448 28.336 28.368 29.096 28.24 29.96C28.112 30.824 28.024 31.384 27.976 31.64L28.264 32.072C28.264 32.088 28.488 32.192 28.936 32.384C29.4 32.56 29.984 32.72 30.688 32.864ZM21.416 32.696C21.848 33.032 22.4 33.2 23.072 33.2L26.792 32.936L27.008 31.184L26.744 30.8C26.392 30.8 26.016 30.624 25.616 30.272C25.232 29.904 24.832 29.376 24.416 28.688L22.928 26.192C24.848 25.056 25.808 23.544 25.808 21.656C25.808 18.648 23.6 17.144 19.184 17.144C18.832 17.16 18.12 17.192 17.048 17.24C15.992 17.272 15.224 17.288 14.744 17.288L11.336 17.264L11.072 19.16L11.312 19.448C11.36 19.448 11.464 19.44 11.624 19.424C11.784 19.408 11.96 19.4 12.152 19.4C12.392 19.4 12.552 19.48 12.632 19.64C12.728 19.784 12.776 20.056 12.776 20.456V28.784C12.776 29.456 12.664 29.944 12.44 30.248C12.216 30.536 11.808 30.728 11.216 30.824L11 33.032C11.272 33 11.848 32.952 12.728 32.888C13.608 32.84 14.416 32.816 15.152 32.816C15.84 32.816 16.584 32.824 17.384 32.84C18.2 32.872 18.768 32.896 19.088 32.912L19.328 30.896L19.208 30.704C18.664 30.672 18.28 30.616 18.056 30.536C17.832 30.456 17.68 30.312 17.6 30.104C17.536 29.88 17.504 29.504 17.504 28.976V27.344H18.848L20.336 31.016C20.64 31.8 21 32.36 21.416 32.696ZM20.528 23.696C20.32 24.048 19.944 24.336 19.4 24.56L17.576 24.32C17.608 22.976 17.664 21.76 17.744 20.672C17.76 20.448 17.792 20.304 17.84 20.24C17.888 20.176 17.992 20.144 18.152 20.144C19.08 20.144 19.76 20.304 20.192 20.624C20.64 20.944 20.864 21.448 20.864 22.136C20.864 22.808 20.752 23.328 20.528 23.696Z" fill="#171717"/>
</svg>
